<svg width="25" height="25" viewBox="0 0 25 25" fill="none" xmlns="http://www.w3.org/2000/svg">
<rect width="25" height="25" rx="2.66667" fill="#1B1D1C"/>
<g clip-path="url(#clip0_321_375)">
<path fill-rule="evenodd" clip-rule="evenodd" d="M17.1204 8.85C16.6219 8.11046 15.9465 7.50726 15.1555 7.09527C14.3645 6.68327 13.4831 6.47555 12.5914 6.491C11.6897 6.47805 10.7927 6.62359 9.94137 6.921C5.87137 8.481 4.32237 15.66 10.0014 17.01C12.6714 17.67 15.3714 17.75 17.0014 15.55C17.6647 14.5635 18.0289 13.4063 18.0502 12.2177C18.0715 11.0291 17.748 9.85965 17.1204 8.85ZM16.3414 15.01C14.8914 16.8 12.5524 16.56 10.3424 16.01C9.93299 15.92 9.53655 15.7789 9.16237 15.59C6.00237 13.95 7.28237 8.9 10.2324 7.64C10.8424 7.38 14.0724 6.211 16.3124 9.01C16.7124 9.482 16.9914 10.046 17.1224 10.65C17.3159 11.3899 17.3463 12.1629 17.2117 12.9157C17.077 13.6685 16.7804 14.3831 16.3424 15.01" fill="white"/>
<path fill-rule="evenodd" clip-rule="evenodd" d="M12.8912 10.01C12.6455 9.31469 12.5568 8.57366 12.6312 7.84C12.7312 7.41 11.8912 7.34 11.8112 7.84C11.6601 8.5101 11.6799 9.2074 11.8686 9.86788C12.0573 10.5284 12.4089 11.1308 12.8912 11.62C13.8272 12.6891 15.1445 13.3495 16.5612 13.46C16.6593 13.468 16.7566 13.4366 16.8316 13.3728C16.9066 13.3091 16.9532 13.2181 16.9612 13.12C16.9691 13.0219 16.9378 12.9246 16.874 12.8496C16.8102 12.7746 16.7193 12.728 16.6212 12.72C15.8245 12.6098 15.0674 12.3049 14.4167 11.8322C13.7661 11.3595 13.2421 10.7336 12.8912 10.01ZM12.2212 5.012C12.3069 5.0094 12.3883 4.97349 12.4481 4.91188C12.5078 4.85027 12.5412 4.76782 12.5412 4.682C12.6245 4.25533 12.6812 3.82533 12.7112 3.392C12.6822 2.70478 12.5333 2.02792 12.2712 1.392C12.2311 1.33561 12.1733 1.29425 12.1069 1.27452C12.0406 1.25479 11.9696 1.25782 11.9052 1.28312C11.8408 1.30842 11.7867 1.35454 11.7515 1.41414C11.7164 1.47374 11.7022 1.54339 11.7112 1.612C11.6912 1.902 11.4812 5.012 12.2212 5.012ZM4.31317 12.19C3.87317 12.12 3.48317 11.98 3.06317 11.91C2.64317 11.84 1.00317 11.95 1.00317 12.27C0.913167 12.91 3.11317 13.04 4.31317 12.84C4.38959 12.8265 4.45882 12.7866 4.50871 12.7271C4.55859 12.6677 4.58594 12.5926 4.58594 12.515C4.58594 12.4374 4.55859 12.3623 4.50871 12.3028C4.45882 12.2434 4.38959 12.2035 4.31317 12.19ZM22.9402 11.94C22.5202 12.02 22.1302 12.16 21.7002 12.23C21.6237 12.2435 21.5545 12.2834 21.5046 12.3428C21.4547 12.4023 21.4274 12.4774 21.4274 12.555C21.4274 12.6326 21.4547 12.7077 21.5046 12.7671C21.5545 12.8266 21.6237 12.8665 21.7002 12.88C22.1308 12.956 22.5642 12.9993 23.0002 13.01C23.5502 13.01 25.0002 12.59 25.0002 12.27C25.0002 11.95 23.2602 11.89 22.9402 11.94ZM13.3312 19.54C13.3312 19.43 13.1612 19.39 12.9512 19.45C12.5812 19.56 12.1412 21.63 12.8612 22.56C12.8854 22.6073 12.9208 22.648 12.9643 22.6786C13.0078 22.7091 13.0582 22.7285 13.1109 22.7351C13.1637 22.7417 13.2173 22.7353 13.267 22.7165C13.3167 22.6976 13.361 22.6669 13.3962 22.627C13.4374 22.5782 13.4636 22.5185 13.4716 22.4552C13.4796 22.3918 13.469 22.3275 13.4412 22.27C13.5502 21.36 13.5131 20.4383 13.3312 19.54ZM7.67217 18.06C7.28217 18.42 5.54217 19.49 5.32217 20.29C5.27217 20.47 5.26217 20.6 5.32217 20.7C5.37623 20.763 5.45042 20.8054 5.53217 20.82C6.64783 20.3662 7.56824 19.5343 8.13217 18.47C8.1628 18.4073 8.17209 18.3363 8.15862 18.2678C8.14516 18.1993 8.10966 18.1371 8.05756 18.0907C8.00545 18.0442 7.93959 18.0161 7.87002 18.0105C7.80044 18.005 7.73096 18.0224 7.67217 18.06ZM18.3702 18.12C18.3109 18.0674 18.2348 18.0378 18.1556 18.0368C18.0764 18.0357 17.9994 18.0631 17.9388 18.114C17.8781 18.165 17.8378 18.2361 17.8252 18.3143C17.8126 18.3925 17.8286 18.4726 17.8702 18.54C18.0948 18.9313 18.3582 19.2947 18.6602 19.63C19.2057 20.1359 19.8264 20.5542 20.5002 20.87C20.5811 20.8541 20.6527 20.8075 20.7002 20.74C21.3302 20.16 18.5202 18.26 18.3702 18.12ZM6.74217 7.921C6.77124 7.95315 6.80651 7.9791 6.84586 7.99729C6.8852 8.01548 6.92781 8.02554 6.97114 8.02686C7.01447 8.02819 7.05762 8.02075 7.098 8.005C7.13838 7.98925 7.17517 7.9655 7.20616 7.93519C7.23714 7.90488 7.26169 7.86862 7.27833 7.82859C7.29496 7.78857 7.30334 7.74559 7.30297 7.70224C7.3026 7.6589 7.29348 7.61608 7.27616 7.57634C7.25884 7.5366 7.23367 7.50077 7.20217 7.471C6.53801 6.49054 5.59857 5.72855 4.50217 5.281C4.13217 5.121 3.94217 5.331 3.96217 5.491C3.96217 5.841 5.05217 6.851 5.50217 7.141C5.95217 7.431 6.34217 7.631 6.74217 7.921ZM22.0002 5.531C22.0002 5.381 21.8402 5.151 21.4602 5.331C20.3666 5.77936 19.433 6.54579 18.7802 7.531C18.7243 7.59272 18.6946 7.67365 18.6971 7.75683C18.6997 7.84001 18.7343 7.91897 18.7938 7.97716C18.8533 8.03535 18.933 8.06826 19.0162 8.06897C19.0994 8.06969 19.1797 8.03816 19.2402 7.981C19.4302 7.831 22.0002 6.251 22.0002 5.531Z" fill="white"/>
</g>
<defs>
<clipPath id="clip0_321_375">
<rect width="24" height="24" fill="white" transform="translate(1)"/>
</clipPath>
</defs>
</svg>
