<svg width="79" height="52" viewBox="0 0 79 52" fill="none" xmlns="http://www.w3.org/2000/svg">
<circle opacity="0.8" cx="17.5" cy="10" r="6" fill="white"/>
<circle opacity="0.8" cx="39.5" cy="6" r="6" fill="white"/>
<circle opacity="0.8" cx="61.5" cy="10" r="6" fill="white"/>
<path d="M1.5972 47V34.4H3.3972V45.578H9.1572V47H1.5972ZM14.9109 47.216C14.0589 47.216 13.2909 47.018 12.6069 46.622C11.9349 46.226 11.4009 45.674 11.0049 44.966C10.6209 44.246 10.4289 43.418 10.4289 42.482C10.4289 41.522 10.6269 40.688 11.0229 39.98C11.4189 39.26 11.9589 38.702 12.6429 38.306C13.3269 37.91 14.0949 37.712 14.9469 37.712C15.8109 37.712 16.5789 37.91 17.2509 38.306C17.9229 38.702 18.4509 39.254 18.8349 39.962C19.2309 40.67 19.4289 41.504 19.4289 42.464C19.4289 43.424 19.2309 44.258 18.8349 44.966C18.4509 45.674 17.9169 46.226 17.2329 46.622C16.5489 47.018 15.7749 47.216 14.9109 47.216ZM14.9109 45.668C15.4029 45.668 15.8469 45.548 16.2429 45.308C16.6509 45.068 16.9749 44.714 17.2149 44.246C17.4669 43.766 17.5929 43.172 17.5929 42.464C17.5929 41.756 17.4729 41.168 17.2329 40.7C16.9929 40.22 16.6689 39.86 16.2609 39.62C15.8649 39.38 15.4269 39.26 14.9469 39.26C14.4669 39.26 14.0229 39.38 13.6149 39.62C13.2069 39.86 12.8769 40.22 12.6249 40.7C12.3849 41.168 12.2649 41.756 12.2649 42.464C12.2649 43.172 12.3849 43.766 12.6249 44.246C12.8769 44.714 13.2009 45.068 13.5969 45.308C14.0049 45.548 14.4429 45.668 14.9109 45.668ZM24.5523 47.216C23.8083 47.216 23.1903 47.09 22.6983 46.838C22.2063 46.586 21.8403 46.25 21.6003 45.83C21.3603 45.398 21.2403 44.936 21.2403 44.444C21.2403 43.844 21.3963 43.334 21.7083 42.914C22.0203 42.482 22.4643 42.152 23.0403 41.924C23.6163 41.696 24.3063 41.582 25.1103 41.582H27.4683C27.4683 41.054 27.3903 40.616 27.2343 40.268C27.0783 39.92 26.8443 39.662 26.5323 39.494C26.2323 39.314 25.8483 39.224 25.3803 39.224C24.8403 39.224 24.3783 39.356 23.9943 39.62C23.6103 39.872 23.3703 40.25 23.2743 40.754H21.4743C21.5463 40.118 21.7623 39.578 22.1223 39.134C22.4943 38.678 22.9683 38.33 23.5443 38.09C24.1203 37.838 24.7323 37.712 25.3803 37.712C26.2323 37.712 26.9463 37.862 27.5223 38.162C28.0983 38.462 28.5303 38.888 28.8183 39.44C29.1183 39.98 29.2683 40.628 29.2683 41.384V47H27.7023L27.5583 45.47C27.4263 45.71 27.2703 45.938 27.0903 46.154C26.9103 46.37 26.6943 46.556 26.4423 46.712C26.2023 46.868 25.9203 46.988 25.5963 47.072C25.2843 47.168 24.9363 47.216 24.5523 47.216ZM24.8943 45.758C25.2783 45.758 25.6263 45.68 25.9383 45.524C26.2503 45.368 26.5143 45.158 26.7303 44.894C26.9583 44.618 27.1263 44.312 27.2343 43.976C27.3543 43.628 27.4203 43.274 27.4323 42.914V42.86H25.2903C24.7743 42.86 24.3543 42.926 24.0303 43.058C23.7183 43.178 23.4903 43.346 23.3463 43.562C23.2023 43.778 23.1303 44.03 23.1303 44.318C23.1303 44.618 23.1963 44.876 23.3283 45.092C23.4723 45.296 23.6763 45.458 23.9403 45.578C24.2043 45.698 24.5223 45.758 24.8943 45.758ZM35.5978 47.216C34.7338 47.216 33.9718 47.012 33.3118 46.604C32.6518 46.184 32.1358 45.62 31.7638 44.912C31.4038 44.192 31.2238 43.376 31.2238 42.464C31.2238 41.54 31.4038 40.724 31.7638 40.016C32.1358 39.308 32.6518 38.75 33.3118 38.342C33.9838 37.922 34.7518 37.712 35.6158 37.712C36.3238 37.712 36.9478 37.856 37.4878 38.144C38.0278 38.42 38.4478 38.816 38.7478 39.332V34.04H40.5478V47H38.9278L38.7478 45.596C38.5678 45.872 38.3338 46.136 38.0458 46.388C37.7578 46.628 37.4098 46.826 37.0018 46.982C36.5938 47.138 36.1258 47.216 35.5978 47.216ZM35.8858 45.65C36.4498 45.65 36.9478 45.518 37.3798 45.254C37.8118 44.99 38.1418 44.618 38.3698 44.138C38.6098 43.658 38.7298 43.1 38.7298 42.464C38.7298 41.828 38.6098 41.276 38.3698 40.808C38.1418 40.328 37.8118 39.956 37.3798 39.692C36.9478 39.416 36.4498 39.278 35.8858 39.278C35.3458 39.278 34.8598 39.416 34.4278 39.692C33.9958 39.956 33.6598 40.328 33.4198 40.808C33.1798 41.276 33.0598 41.828 33.0598 42.464C33.0598 43.1 33.1798 43.658 33.4198 44.138C33.6598 44.618 33.9958 44.99 34.4278 45.254C34.8598 45.518 35.3458 45.65 35.8858 45.65ZM43.1352 47V37.928H44.9352V47H43.1352ZM44.0532 36.218C43.7052 36.218 43.4172 36.11 43.1892 35.894C42.9732 35.678 42.8652 35.402 42.8652 35.066C42.8652 34.742 42.9732 34.478 43.1892 34.274C43.4172 34.058 43.7052 33.95 44.0532 33.95C44.3892 33.95 44.6712 34.058 44.8992 34.274C45.1272 34.478 45.2412 34.742 45.2412 35.066C45.2412 35.402 45.1272 35.678 44.8992 35.894C44.6712 36.11 44.3892 36.218 44.0532 36.218ZM47.5092 47V37.928H49.1292L49.2372 39.476C49.5252 38.936 49.9332 38.51 50.4612 38.198C50.9892 37.874 51.5952 37.712 52.2792 37.712C52.9992 37.712 53.6172 37.856 54.1332 38.144C54.6492 38.432 55.0512 38.87 55.3392 39.458C55.6272 40.034 55.7712 40.76 55.7712 41.636V47H53.9712V41.816C53.9712 40.976 53.7852 40.34 53.4132 39.908C53.0412 39.476 52.5012 39.26 51.7932 39.26C51.3252 39.26 50.9052 39.374 50.5332 39.602C50.1612 39.818 49.8612 40.142 49.6332 40.574C49.4172 41.006 49.3092 41.534 49.3092 42.158V47H47.5092ZM61.7636 51.176C60.9356 51.176 60.2036 51.068 59.5676 50.852C58.9316 50.648 58.4396 50.33 58.0916 49.898C57.7436 49.466 57.5696 48.938 57.5696 48.314C57.5696 47.99 57.6416 47.66 57.7856 47.324C57.9296 47 58.1636 46.688 58.4876 46.388C58.8116 46.088 59.2496 45.818 59.8016 45.578L60.8096 46.388C60.1976 46.616 59.7836 46.886 59.5676 47.198C59.3636 47.522 59.2616 47.834 59.2616 48.134C59.2616 48.494 59.3696 48.794 59.5856 49.034C59.8016 49.274 60.0956 49.454 60.4676 49.574C60.8516 49.694 61.2836 49.754 61.7636 49.754C62.2316 49.754 62.6396 49.688 62.9876 49.556C63.3356 49.424 63.6056 49.238 63.7976 48.998C63.9896 48.758 64.0856 48.476 64.0856 48.152C64.0856 47.768 63.9416 47.444 63.6536 47.18C63.3656 46.928 62.8136 46.778 61.9976 46.73C61.3136 46.682 60.7316 46.616 60.2516 46.532C59.7836 46.448 59.3816 46.346 59.0456 46.226C58.7216 46.106 58.4456 45.974 58.2176 45.83C58.0016 45.686 57.8156 45.536 57.6596 45.38V44.966L59.4596 43.112L60.9176 43.616L58.9556 45.434L59.3336 44.624C59.4656 44.708 59.5916 44.792 59.7116 44.876C59.8316 44.948 59.9936 45.014 60.1976 45.074C60.4016 45.134 60.6776 45.188 61.0256 45.236C61.3736 45.284 61.8296 45.332 62.3936 45.38C63.2096 45.44 63.8636 45.584 64.3556 45.812C64.8596 46.04 65.2256 46.346 65.4536 46.73C65.6816 47.114 65.7956 47.57 65.7956 48.098C65.7956 48.614 65.6516 49.106 65.3636 49.574C65.0876 50.042 64.6496 50.426 64.0496 50.726C63.4616 51.026 62.6996 51.176 61.7636 51.176ZM61.7636 44.21C60.9956 44.21 60.3416 44.066 59.8016 43.778C59.2736 43.49 58.8656 43.1 58.5776 42.608C58.3016 42.116 58.1636 41.57 58.1636 40.97C58.1636 40.358 58.3016 39.812 58.5776 39.332C58.8656 38.84 59.2796 38.45 59.8196 38.162C60.3596 37.862 61.0076 37.712 61.7636 37.712C62.5196 37.712 63.1616 37.862 63.6896 38.162C64.2296 38.45 64.6376 38.84 64.9136 39.332C65.2016 39.812 65.3456 40.358 65.3456 40.97C65.3456 41.57 65.2016 42.116 64.9136 42.608C64.6376 43.1 64.2296 43.49 63.6896 43.778C63.1616 44.066 62.5196 44.21 61.7636 44.21ZM61.7636 42.77C62.3516 42.77 62.8196 42.62 63.1676 42.32C63.5156 42.008 63.6896 41.558 63.6896 40.97C63.6896 40.382 63.5156 39.938 63.1676 39.638C62.8196 39.326 62.3516 39.17 61.7636 39.17C61.1756 39.17 60.7016 39.326 60.3416 39.638C59.9816 39.938 59.8016 40.382 59.8016 40.97C59.8016 41.558 59.9816 42.008 60.3416 42.32C60.7016 42.62 61.1756 42.77 61.7636 42.77ZM63.2396 39.35L62.8076 37.928H66.5336V39.17L63.2396 39.35ZM69.0592 47.09C68.7112 47.09 68.4232 46.982 68.1952 46.766C67.9792 46.538 67.8712 46.268 67.8712 45.956C67.8712 45.632 67.9792 45.362 68.1952 45.146C68.4232 44.918 68.7112 44.804 69.0592 44.804C69.4072 44.804 69.6892 44.918 69.9052 45.146C70.1212 45.362 70.2292 45.632 70.2292 45.956C70.2292 46.268 70.1212 46.538 69.9052 46.766C69.6892 46.982 69.4072 47.09 69.0592 47.09ZM72.9264 47.09C72.5784 47.09 72.2904 46.982 72.0624 46.766C71.8464 46.538 71.7384 46.268 71.7384 45.956C71.7384 45.632 71.8464 45.362 72.0624 45.146C72.2904 44.918 72.5784 44.804 72.9264 44.804C73.2744 44.804 73.5564 44.918 73.7724 45.146C73.9884 45.362 74.0964 45.632 74.0964 45.956C74.0964 46.268 73.9884 46.538 73.7724 46.766C73.5564 46.982 73.2744 47.09 72.9264 47.09ZM76.7936 47.09C76.4456 47.09 76.1576 46.982 75.9296 46.766C75.7136 46.538 75.6056 46.268 75.6056 45.956C75.6056 45.632 75.7136 45.362 75.9296 45.146C76.1576 44.918 76.4456 44.804 76.7936 44.804C77.1416 44.804 77.4236 44.918 77.6396 45.146C77.8556 45.362 77.9636 45.632 77.9636 45.956C77.9636 46.268 77.8556 46.538 77.6396 46.766C77.4236 46.982 77.1416 47.09 76.7936 47.09Z" fill="white"/>
</svg>
