<svg width="334" height="61" viewBox="0 0 334 61" fill="none" xmlns="http://www.w3.org/2000/svg">
<path d="M82.3928 44.1822L78.3609 26.3228H82.6093L85.2611 40.8539H85.5588L88.6977 26.3228H93.6497L96.7886 40.8539H97.1133L99.7652 26.3228H103.797L99.711 44.1822H94.272L91.2413 29.6511H90.9978L87.9671 44.1822H82.3928ZM112.156 44.5611C110.984 44.5611 109.937 44.3987 109.017 44.074C108.115 43.7493 107.349 43.2802 106.717 42.6669C106.086 42.0535 105.599 41.2958 105.256 40.3939C104.931 39.4919 104.769 38.4726 104.769 37.3361C104.769 36.2176 104.922 35.1894 105.229 34.2513C105.554 33.2952 106.023 32.4744 106.636 31.7889C107.249 31.0853 107.998 30.5441 108.882 30.1653C109.766 29.7864 110.767 29.597 111.886 29.597C112.968 29.597 113.933 29.7774 114.781 30.1382C115.629 30.481 116.332 31.0041 116.892 31.7077C117.469 32.4112 117.884 33.2771 118.136 34.3054C118.407 35.3156 118.506 36.4792 118.434 37.7961L107.285 37.9044V35.7666L116.188 35.6855L114.808 36.7678C114.934 35.8117 114.871 35.027 114.619 34.4136C114.366 33.8003 113.996 33.3493 113.509 33.0607C113.04 32.772 112.517 32.6277 111.94 32.6277C111.254 32.6277 110.65 32.8081 110.127 33.1689C109.604 33.5297 109.198 34.0619 108.909 34.7654C108.62 35.4509 108.476 36.2808 108.476 37.2549C108.476 38.7883 108.81 39.9158 109.477 40.6374C110.163 41.359 111.056 41.7198 112.156 41.7198C112.661 41.7198 113.085 41.6566 113.428 41.5304C113.789 41.386 114.077 41.2056 114.294 40.9892C114.528 40.7727 114.709 40.5292 114.835 40.2586C114.979 39.988 115.097 39.7174 115.187 39.4468L118.569 40.1774C118.407 40.8449 118.163 41.4492 117.839 41.9904C117.532 42.5135 117.117 42.9736 116.594 43.3704C116.071 43.7493 115.439 44.0379 114.7 44.2363C113.978 44.4528 113.13 44.5611 112.156 44.5611ZM124.632 44.5611C123.838 44.5611 123.134 44.4077 122.521 44.101C121.908 43.7763 121.43 43.3163 121.087 42.721C120.744 42.1257 120.573 41.386 120.573 40.5021C120.573 39.7264 120.717 39.0769 121.006 38.5538C121.312 38.0306 121.754 37.6067 122.332 37.282C122.909 36.9573 123.621 36.6867 124.469 36.4702C125.317 36.2537 126.282 36.0643 127.365 35.9019C127.942 35.8117 128.411 35.7306 128.772 35.6584C129.151 35.5682 129.43 35.4329 129.611 35.2525C129.791 35.0541 129.881 34.7744 129.881 34.4136C129.881 33.9085 129.701 33.4756 129.34 33.1148C128.979 32.754 128.411 32.5736 127.635 32.5736C127.112 32.5736 126.625 32.6638 126.174 32.8442C125.741 33.0246 125.362 33.2952 125.037 33.656C124.731 34.0168 124.505 34.4768 124.361 35.036L120.924 33.9807C121.141 33.2411 121.448 32.6006 121.844 32.0595C122.259 31.5183 122.755 31.0673 123.333 30.7065C123.91 30.3276 124.568 30.048 125.308 29.8676C126.048 29.6872 126.85 29.597 127.716 29.597C129.105 29.597 130.233 29.8225 131.099 30.2735C131.983 30.7065 132.641 31.392 133.074 32.33C133.507 33.2501 133.724 34.4407 133.724 35.9019V38.3373C133.724 38.9687 133.733 39.6091 133.751 40.2586C133.787 40.908 133.823 41.5664 133.859 42.2339C133.913 42.8834 133.967 43.5328 134.021 44.1822H130.585C130.513 43.7312 130.44 43.2171 130.368 42.6398C130.314 42.0445 130.269 41.4492 130.233 40.8539H129.746C129.493 41.5394 129.133 42.1618 128.664 42.721C128.194 43.2802 127.617 43.7312 126.932 44.074C126.264 44.3987 125.498 44.5611 124.632 44.5611ZM126.282 41.7468C126.625 41.7468 126.968 41.6837 127.311 41.5574C127.671 41.4311 128.014 41.2598 128.339 41.0433C128.682 40.8088 128.988 40.5201 129.259 40.1774C129.547 39.8346 129.782 39.4468 129.962 39.0138L129.908 36.7408L130.531 36.8761C130.206 37.1106 129.827 37.3 129.394 37.4443C128.961 37.5706 128.51 37.6698 128.041 37.742C127.59 37.8142 127.139 37.8953 126.688 37.9855C126.237 38.0757 125.831 38.193 125.47 38.3373C125.128 38.4816 124.848 38.6801 124.632 38.9326C124.433 39.1671 124.334 39.5009 124.334 39.9338C124.334 40.4931 124.514 40.9351 124.875 41.2598C125.236 41.5845 125.705 41.7468 126.282 41.7468ZM142.409 44.5069C140.821 44.5069 139.649 44.092 138.891 43.2622C138.151 42.4143 137.782 41.0703 137.782 39.2303V33.0336H135.725L135.779 29.9758H137.213C137.773 29.9758 138.187 29.8947 138.458 29.7323C138.729 29.57 138.891 29.2723 138.945 28.8393L139.297 26.8099H141.516V29.9758H145.115V33.1418H141.516V39.0679C141.516 39.7174 141.669 40.1864 141.976 40.475C142.283 40.7637 142.752 40.908 143.383 40.908C143.726 40.908 144.05 40.8719 144.357 40.7998C144.682 40.7276 144.961 40.6103 145.196 40.448V44.074C144.637 44.2544 144.123 44.3716 143.654 44.4258C143.185 44.4799 142.77 44.5069 142.409 44.5069ZM147.887 44.1822V35.2525V24.8345H151.811V29.2723C151.811 29.6331 151.793 30.0119 151.757 30.4088C151.739 30.8057 151.694 31.2116 151.622 31.6265C151.567 32.0234 151.504 32.4293 151.432 32.8442C151.378 33.2591 151.315 33.674 151.243 34.0889H151.838C152.091 33.1689 152.406 32.3751 152.785 31.7077C153.182 31.0402 153.687 30.5261 154.3 30.1653C154.914 29.7864 155.69 29.597 156.628 29.597C158.287 29.597 159.532 30.1833 160.362 31.3559C161.192 32.5104 161.607 34.2874 161.607 36.6867V44.1822H157.683V37.282C157.683 35.7666 157.457 34.6482 157.006 33.9266C156.574 33.1869 155.915 32.8171 155.031 32.8171C154.31 32.8171 153.714 33.0336 153.245 33.4666C152.776 33.8995 152.424 34.4858 152.19 35.2254C151.955 35.947 151.82 36.7588 151.784 37.6608V44.1822H147.887ZM171.561 44.5611C170.388 44.5611 169.342 44.3987 168.422 44.074C167.52 43.7493 166.753 43.2802 166.122 42.6669C165.49 42.0535 165.003 41.2958 164.661 40.3939C164.336 39.4919 164.174 38.4726 164.174 37.3361C164.174 36.2176 164.327 35.1894 164.634 34.2513C164.958 33.2952 165.427 32.4744 166.041 31.7889C166.654 31.0853 167.403 30.5441 168.287 30.1653C169.171 29.7864 170.172 29.597 171.29 29.597C172.373 29.597 173.338 29.7774 174.186 30.1382C175.033 30.481 175.737 31.0041 176.296 31.7077C176.874 32.4112 177.288 33.2771 177.541 34.3054C177.812 35.3156 177.911 36.4792 177.839 37.7961L166.69 37.9044V35.7666L175.593 35.6855L174.213 36.7678C174.339 35.8117 174.276 35.027 174.023 34.4136C173.771 33.8003 173.401 33.3493 172.914 33.0607C172.445 32.772 171.922 32.6277 171.344 32.6277C170.659 32.6277 170.054 32.8081 169.531 33.1689C169.008 33.5297 168.602 34.0619 168.314 34.7654C168.025 35.4509 167.881 36.2808 167.881 37.2549C167.881 38.7883 168.214 39.9158 168.882 40.6374C169.567 41.359 170.46 41.7198 171.561 41.7198C172.066 41.7198 172.49 41.6566 172.833 41.5304C173.193 41.386 173.482 41.2056 173.699 40.9892C173.933 40.7727 174.113 40.5292 174.24 40.2586C174.384 39.988 174.501 39.7174 174.592 39.4468L177.974 40.1774C177.812 40.8449 177.568 41.4492 177.243 41.9904C176.937 42.5135 176.522 42.9736 175.999 43.3704C175.475 43.7493 174.844 44.0379 174.104 44.2363C173.383 44.4528 172.535 44.5611 171.561 44.5611ZM180.681 44.1822V37.309V29.9758H183.902L183.929 34.8195H184.443C184.587 33.6109 184.831 32.6277 185.173 31.87C185.534 31.1124 186.03 30.5531 186.662 30.1923C187.293 29.8315 188.078 29.6511 189.016 29.6511C189.178 29.6511 189.35 29.6602 189.53 29.6782C189.728 29.6782 189.954 29.7053 190.206 29.7594L190.044 33.8995C189.774 33.7732 189.476 33.683 189.151 33.6289C188.826 33.5748 188.538 33.5477 188.285 33.5477C187.582 33.5477 186.977 33.7101 186.472 34.0348C185.967 34.3595 185.552 34.8286 185.227 35.4419C184.921 36.0372 184.713 36.7678 184.605 37.6338V44.1822H180.681ZM197.352 44.1822L203.467 26.3228H209.15L215.265 44.1822H211.044L206.525 29.4076H206.119L201.573 44.1822H197.352ZM200.789 40.6645V38.0126H212.397V40.6645H200.789ZM217.492 48.7283V37.2008V29.9758H220.712L220.739 33.9266L221.226 33.9536C221.389 32.9975 221.668 32.1948 222.065 31.5453C222.48 30.8959 223.012 30.4088 223.662 30.0841C224.311 29.7594 225.06 29.597 225.908 29.597C227.171 29.597 228.253 29.9127 229.155 30.5441C230.057 31.1575 230.742 32.0324 231.212 33.1689C231.699 34.2874 231.942 35.6133 231.942 37.1467C231.942 38.5718 231.726 39.8436 231.293 40.9621C230.86 42.0625 230.21 42.9375 229.344 43.5869C228.497 44.2363 227.432 44.5611 226.151 44.5611C225.249 44.5611 224.483 44.3897 223.851 44.0469C223.238 43.7042 222.724 43.2261 222.309 42.6128C221.912 41.9814 221.578 41.2327 221.308 40.3668H220.794C220.902 40.8539 221.001 41.35 221.091 41.8551C221.181 42.3602 221.254 42.8563 221.308 43.3434C221.362 43.8124 221.389 44.2724 221.389 44.7234V48.7283H217.492ZM224.798 41.4492C225.448 41.4492 225.998 41.2688 226.449 40.908C226.9 40.5472 227.243 40.0421 227.477 39.3926C227.73 38.7432 227.856 38.0036 227.856 37.1737C227.856 36.2718 227.73 35.5051 227.477 34.8737C227.225 34.2242 226.864 33.7191 226.395 33.3583C225.926 32.9975 225.367 32.8171 224.717 32.8171C224.14 32.8171 223.644 32.9434 223.229 33.196C222.814 33.4485 222.462 33.7823 222.174 34.1972C221.903 34.6121 221.705 35.0631 221.578 35.5502C221.452 36.0192 221.389 36.4702 221.389 36.9031V37.4173C221.389 37.76 221.434 38.1208 221.524 38.4997C221.614 38.8605 221.759 39.2213 221.957 39.5821C222.156 39.9248 222.39 40.2405 222.661 40.5292C222.931 40.7998 223.247 41.0252 223.608 41.2056C223.969 41.368 224.365 41.4492 224.798 41.4492ZM234.748 48.7283V37.2008V29.9758H237.968L237.995 33.9266L238.482 33.9536C238.645 32.9975 238.924 32.1948 239.321 31.5453C239.736 30.8959 240.268 30.4088 240.918 30.0841C241.567 29.7594 242.316 29.597 243.164 29.597C244.426 29.597 245.509 29.9127 246.411 30.5441C247.313 31.1575 247.998 32.0324 248.467 33.1689C248.954 34.2874 249.198 35.6133 249.198 37.1467C249.198 38.5718 248.982 39.8436 248.549 40.9621C248.116 42.0625 247.466 42.9375 246.6 43.5869C245.752 44.2363 244.688 44.5611 243.407 44.5611C242.505 44.5611 241.739 44.3897 241.107 44.0469C240.494 43.7042 239.98 43.2261 239.565 42.6128C239.168 41.9814 238.834 41.2327 238.564 40.3668H238.049C238.158 40.8539 238.257 41.35 238.347 41.8551C238.437 42.3602 238.509 42.8563 238.564 43.3434C238.618 43.8124 238.645 44.2724 238.645 44.7234V48.7283H234.748ZM242.054 41.4492C242.704 41.4492 243.254 41.2688 243.705 40.908C244.156 40.5472 244.499 40.0421 244.733 39.3926C244.986 38.7432 245.112 38.0036 245.112 37.1737C245.112 36.2718 244.986 35.5051 244.733 34.8737C244.481 34.2242 244.12 33.7191 243.651 33.3583C243.182 32.9975 242.622 32.8171 241.973 32.8171C241.396 32.8171 240.9 32.9434 240.485 33.196C240.07 33.4485 239.718 33.7823 239.429 34.1972C239.159 34.6121 238.96 35.0631 238.834 35.5502C238.708 36.0192 238.645 36.4702 238.645 36.9031V37.4173C238.645 37.76 238.69 38.1208 238.78 38.4997C238.87 38.8605 239.015 39.2213 239.213 39.5821C239.411 39.9248 239.646 40.2405 239.916 40.5292C240.187 40.7998 240.503 41.0252 240.864 41.2056C241.224 41.368 241.621 41.4492 242.054 41.4492Z" fill="#E4E6E5"/>
<g filter="url(#filter0_d_268_914)">
<path d="M14.0474 4.03711C14.3899 8.85925 14.9599 13.8962 15.7622 19.1475C16.7601 25.3516 17.7144 29.6039 18.6255 31.9033C18.7121 32.2063 18.7986 32.358 18.8853 32.3584C19.0154 32.3584 19.1458 32.2068 19.2759 31.9033C21.0763 24.9432 22.5206 19.6384 23.6099 15.9893L30.3521 19.7793L36.231 15.082C36.9589 18.5102 37.751 22.3173 38.605 26.502C39.4726 30.71 39.993 33.2485 40.1665 34.1162C40.3834 34.94 40.6652 34.8962 41.0122 33.9854C41.7497 31.9462 42.6831 28.237 43.811 22.8574C44.5038 19.5536 44.9821 16.364 45.2495 13.2891L52.8003 18.4688C51.2095 25.5453 49.5819 31.7377 47.9106 37.0439C46.1752 42.5539 45.0475 45.5481 44.5269 46.0254C44.0062 46.546 42.7912 47.0012 40.8823 47.3916C39.0169 47.782 37.5853 47.9775 36.5874 47.9775C35.5898 47.9775 35.0906 47.9123 35.0903 47.7822C35.0035 47.4346 34.5914 45.222 33.854 41.1445C31.6848 29.7344 30.4478 23.6818 30.144 22.9873C29.8409 22.251 29.6461 21.8821 29.5591 21.8809L29.2329 22.2715C28.1483 24.9614 26.9122 29.1699 25.5239 34.8965C24.1792 40.5791 23.5066 43.8332 23.5063 44.6582C23.5062 44.8317 23.094 45.0704 22.27 45.374C20.0139 46.1984 17.8006 46.6113 15.6313 46.6113C15.1543 46.6113 14.8504 46.5461 14.7202 46.416C13.5488 45.2445 11.7484 38.8662 9.31885 27.2822C7.73775 19.578 6.68337 13.3876 6.1499 8.71191L6.61084 9.02148L14.0474 4.03711ZM49.9507 4.17676L45.1079 0.854492L42.0444 2.85938C42.0478 2.84386 42.0507 2.82815 42.0542 2.8125C42.2711 1.98837 42.4446 1.51107 42.5747 1.38086C45.1837 0.692779 47.7928 0.233278 50.4019 0L49.9507 4.17676Z" fill="#E4E6E5"/>
</g>
<defs>
<filter id="filter0_d_268_914" x="-4.1008e-05" y="0" width="58.9503" height="60.2774" filterUnits="userSpaceOnUse" color-interpolation-filters="sRGB">
<feFlood flood-opacity="0" result="BackgroundImageFix"/>
<feColorMatrix in="SourceAlpha" type="matrix" values="0 0 0 0 0 0 0 0 0 0 0 0 0 0 0 0 0 0 127 0" result="hardAlpha"/>
<feOffset dy="6.14994"/>
<feGaussianBlur stdDeviation="3.07497"/>
<feComposite in2="hardAlpha" operator="out"/>
<feColorMatrix type="matrix" values="0 0 0 0 0.207843 0 0 0 0 0.156863 0 0 0 0 0.266667 0 0 0 0.25 0"/>
<feBlend mode="normal" in2="BackgroundImageFix" result="effect1_dropShadow_268_914"/>
<feBlend mode="normal" in="SourceGraphic" in2="effect1_dropShadow_268_914" result="shape"/>
</filter>
</defs>
</svg>
